<?xml version="1.0" encoding="utf-8"?>
<!-- Generator: Adobe Illustrator 24.1.1, SVG Export Plug-In . SVG Version: 6.00 Build 0)  -->
<svg version="1.1" id="Layer_1" xmlns="http://www.w3.org/2000/svg" xmlns:xlink="http://www.w3.org/1999/xlink" x="0px" y="0px"
	 viewBox="0 0 512 512" style="enable-background:new 0 0 512 512;" xml:space="preserve">
<g>
	<path d="M305.2,204.6L305.2,204.6c-1.6-0.9-4.8-1.4-8.9-1.4v102.7c5.7,0,9.3-1.3,10.7-3.6c1.3-2.2,2-8.6,2-18.8v-61.2
		c0-7-0.1-11.5-0.7-13.4C307.8,206.8,306.9,205.4,305.2,204.6L305.2,204.6z M478.1,0H34.6C15.8,1.3,1.2,15.9,0,34.1v443.3
		c1.2,18.7,15.2,32.9,33.2,34.5l1,0.1h444.7c18.7-1.9,33.1-17.6,33.2-36.5v-439C512,17.5,497.2,1.5,478.1,0L478.1,0z M102.3,333.3
		H61.6V176.3h40.7V333.3z M241.7,333.3h-35.4V227.3l-14.3,106h-25.3l-14.9-103.7l-0.2,103.7h-35.5v-157h52.6
		c1.8,11.1,3.4,22.3,4.9,33.6l5.7,39.8l9.5-73.4h52.9L241.7,333.3z M347.9,286.9c0,13.9-0.9,23.3-2.3,28.2
		c-1.2,4.7-3.6,8.5-6.9,11.1c-3.2,2.8-7.2,4.7-12.2,5.7c-4.8,0.9-12.2,1.6-21.7,1.6l-0.1-0.1h-49.2v-157H286c19.5,0,30.9,1,37.7,2.7
		c6.9,1.9,12.3,4.8,15.9,9c3.5,3.8,5.8,8.6,6.7,13.7c1.1,5,1.6,15,1.6,29.9L347.9,286.9z M453.4,296.9c0,9.6-1,16.3-1.9,21.2
		c-1.3,4.8-4.2,8.6-8.7,12.1c-4.8,3.6-10.2,5.2-16.7,5.2c-4.7,0-10.7-1.3-14.5-2.9c-4-2-7.6-5.1-11-9.2l-2.4,10.1h-36.7V176.3
		l-0.4-0.1h38.4v51.2c3.2-3.7,6.7-6.6,10.8-8.5c4.3-1.7,10-2.8,14.7-2.8c4.8,0,9.6,0.8,14.1,2.5c3.7,1.5,6.8,3.9,9.3,7
		c1.9,2.7,3.2,5.7,3.8,9c0.6,2.9,0.9,9.2,0.9,18.5v43.8L453.4,296.9z M407,239c-2.5,0-4.1,0.9-4.7,2.6c-0.7,1.7-1.2,6.2-1.2,13.3
		v41.5c0,6.9,0.6,11.4,1.2,13.3c0.8,1.8,2.7,2.9,4.8,2.8c2.5,0,5.7-1,6.4-3c0.6-2.1,0.9-6.8,0.9-14.3l0.7-0.1v-40.3
		c0-6.4-0.3-10.8-1.2-12.8C412.8,239.8,409.7,239,407,239L407,239z"/>
</g>
</svg>
